<svg xmlns="http://www.w3.org/2000/svg" xmlns:xlink="http://www.w3.org/1999/xlink" viewBox="0 0 196.21 198.25"><defs><style>.cls-1,.cls-10{fill:none;}.cls-2{isolation:isolate;}.cls-3{fill:#f4e6e1;}.cls-4{clip-path:url(#clip-path);}.cls-5{fill:#d76a40;}.cls-6{fill:#5b4850;}.cls-7{fill:#fff;}.cls-11,.cls-8{fill:#f1b69a;}.cls-9{fill:#150a08;}.cls-10{stroke:#e07e61;stroke-linecap:round;stroke-miterlimit:10;}.cls-11{opacity:0.5;mix-blend-mode:multiply;}</style><clipPath id="clip-path" transform="translate(-212.77 -74.57)"><circle class="cls-1" cx="310.87" cy="172.67" r="98.1" transform="translate(-31.04 270.4) rotate(-45)"/></clipPath></defs><title>profile</title><g class="cls-2"><g id="Layer_2" data-name="Layer 2"><circle class="cls-3" cx="310.87" cy="172.67" r="98.1" transform="translate(-243.81 195.83) rotate(-45)"/><g class="cls-4"><path class="cls-5" d="M349.78,154.66c.79-10.93,9.11-41.36-8.85-39.29-2.32-15.84-17.16-23.86-31.46-23.13-38.79,2-44.79,37.42-38.71,62.42,9.84,26.22,60.42,5.72,79,.05Z" transform="translate(-212.77 -74.57)"/><path class="cls-6" d="M396.33,272.82H225.42s5.18-28.67,16.93-45.17,55.34-22.53,55.34-22.53l13.18,2,13.19-2s43.61,6,55.36,22.53S396.33,272.82,396.33,272.82Z" transform="translate(-212.77 -74.57)"/><path class="cls-7" d="M287.56,206.35a77.81,77.81,0,0,1,23.09-1.74h0a77.81,77.81,0,0,1,23.09,1.74c1.1,10.4-3.19,23.49-22.88,23.55C290.94,230,286.44,216.88,287.56,206.35Z" transform="translate(-212.77 -74.57)"/><path class="cls-8" d="M310.59,219.67h0A11.58,11.58,0,0,1,299,208.1V186h23.16V208.1A11.58,11.58,0,0,1,310.59,219.67Z" transform="translate(-212.77 -74.57)"/><path class="cls-9" d="M322.17,184.68v13.58S318.28,205,310.59,205c-6.18,0-11.58-5.86-11.58-5.86V184.68Z" transform="translate(-212.77 -74.57)"/><path class="cls-8" d="M278.2,159.65c-6.26-9.51-13.52-3.4-13.52,3.29,0,9.7,10.51,18.05,16.52,11.09S278.2,159.65,278.2,159.65Z" transform="translate(-212.77 -74.57)"/><path class="cls-10" d="M276.83,164c-3.9-7.28-9.28-.48-7.23,2.21" transform="translate(-212.77 -74.57)"/><path class="cls-8" d="M340.74,159.65c6.26-9.51,13.52-3.4,13.52,3.29,0,9.7-10.52,18.05-16.53,11.09S340.74,159.65,340.74,159.65Z" transform="translate(-212.77 -74.57)"/><path class="cls-10" d="M342.11,164c3.89-7.28,9.28-.48,7.22,2.21" transform="translate(-212.77 -74.57)"/><path class="cls-8" d="M309.44,197c-24.74,0-39.37-27-33.59-54.8,4.77-22.87,62.47-22.86,67.23,0C348.86,170,334.19,197,309.44,197Z" transform="translate(-212.77 -74.57)"/><path class="cls-5" d="M346,151.3s-.32,24.91-9.62,36.56-25.74,12.41-25.74,12.41-18.43-.75-27.72-12.41-9.62-36.56-9.62-36.56l1.29-2.51c.94,6.68,5.31,24,10.57,27.81,8.6-2.88,15-3.2,24.86-3.2,10.5,0,17.19,1.13,24.49,2,4.23-3.72,9.34-20.57,10.2-26.66Z" transform="translate(-212.77 -74.57)"/><path class="cls-11" d="M306.15,169.21c2.55,1.22,8.28-1.48,8.4,0s-3,2.79-4.2,2.79S306.15,169.21,306.15,169.21Z" transform="translate(-212.77 -74.57)"/><path class="cls-10" d="M306.23,161.75c-3.61,7.81,1.79,9.32,3.24,9.51" transform="translate(-212.77 -74.57)"/><path class="cls-7" d="M300.47,176.6c9.47,1,15.8,0,20.29.13,0,0-5.67,8-12.34,6.42S300.47,176.6,300.47,176.6Z" transform="translate(-212.77 -74.57)"/><path class="cls-5" d="M299.68,140.49c-1.54-3.46-10.6-1.88-11.88.58s3,3.15,6.1,3S300.67,142.68,299.68,140.49Z" transform="translate(-212.77 -74.57)"/><path class="cls-5" d="M319.25,140.49c1.55-3.46,10.61-1.88,11.89.58s-3,3.15-6.11,3S318.27,142.68,319.25,140.49Z" transform="translate(-212.77 -74.57)"/><path class="cls-11" d="M307,185.48c3.47,0,8.44-1.79,9.2,0s-3.46,5.38-6.08,5.12S303.06,185.47,307,185.48Z" transform="translate(-212.77 -74.57)"/><path class="cls-9" d="M293.14,153.79a2.49,2.49,0,1,0,2.49-2.49A2.48,2.48,0,0,0,293.14,153.79Z" transform="translate(-212.77 -74.57)"/><circle class="cls-9" cx="110.54" cy="79.22" r="2.49"/><path class="cls-5" d="M290.51,125.49l5.77-1.4s-7.51,12,8.48,14.36,32.66-8.52,19.37-14l4.83-.32-11.62-8.91Z" transform="translate(-212.77 -74.57)"/></g></g></g></svg>